HIERARCHY
ROOT Hips
{
	OFFSET 56.524502 -14.405314 85.825897
	CHANNELS 6 Xposition Yposition Zposition Xrotation Yrotation Zrotation
	JOINT spine
	{
		OFFSET 0.000000 -0.367607 6.392601
		CHANNELS 3 Xrotation Yrotation Zrotation
		JOINT spine1
		{
			OFFSET 0.000000 -0.000001 9.176109
			CHANNELS 3 Xrotation Yrotation Zrotation
			JOINT spine2
			{
				OFFSET 0.000000 -0.000002 8.792381
				CHANNELS 3 Xrotation Yrotation Zrotation
				JOINT Neck
				{
					OFFSET 0.000000 -1.076243 22.573692
					CHANNELS 3 Xrotation Yrotation Zrotation
					JOINT Head
					{
						OFFSET 0.000000 -0.000001 6.820114
						CHANNELS 3 Xrotation Yrotation Zrotation
						End Site
						{
							OFFSET 0.000000 5.444267 16.508499
						}
					}
				}
				JOINT RightShoulder
				{
					OFFSET -3.702209 0.515507 9.495087
					CHANNELS 3 Xrotation Yrotation Zrotation
					JOINT RightArm
					{
						OFFSET 0.000000 -0.000003 12.453697
						CHANNELS 3 Xrotation Yrotation Zrotation
						JOINT RightArmRoll
						{
							OFFSET 0.000000 -0.000001 6.286865
							CHANNELS 3 Xrotation Yrotation Zrotation
							JOINT RightForeArm
							{
								OFFSET 0.000000 -0.000003 18.311401
								CHANNELS 3 Xrotation Yrotation Zrotation
								JOINT RightForeArmRoll
								{
									OFFSET 0.000000 -0.000001 7.054825
									CHANNELS 3 Xrotation Yrotation Zrotation
									JOINT RightHand
									{
										OFFSET 0.000000 -0.000002 14.157501
										CHANNELS 3 Xrotation Yrotation Zrotation
										End Site
										{
											OFFSET 0.000000 0.000000 0.100006
										}
									}
								}
							}
						}
					}
				}
				JOINT LeftShoulder
				{
					OFFSET 3.702209 0.515507 9.495087
					CHANNELS 3 Xrotation Yrotation Zrotation
					JOINT LeftArm
					{
						OFFSET 0.000000 -0.000003 12.453697
						CHANNELS 3 Xrotation Yrotation Zrotation
						JOINT LeftArmRoll
						{
							OFFSET 0.000000 -0.000001 6.286865
							CHANNELS 3 Xrotation Yrotation Zrotation
							JOINT LeftForeArm
							{
								OFFSET 0.000000 -0.000003 18.311401
								CHANNELS 3 Xrotation Yrotation Zrotation
								JOINT LeftForeArmRoll
								{
									OFFSET 0.000000 -0.000001 7.054825
									CHANNELS 3 Xrotation Yrotation Zrotation
									JOINT LeftHand
									{
										OFFSET 0.000000 -0.000002 14.157501
										CHANNELS 3 Xrotation Yrotation Zrotation
										End Site
										{
											OFFSET 0.000000 0.000000 0.100006
										}
									}
								}
							}
						}
					}
				}
			}
		}
	}
	JOINT RightUpLeg
	{
		OFFSET -5.666161 0.871611 -1.039032
		CHANNELS 3 Xrotation Yrotation Zrotation
		JOINT RightUpLegRoll
		{
			OFFSET 0.000000 -0.000003 16.600502
			CHANNELS 3 Xrotation Yrotation Zrotation
			JOINT RightLeg
			{
				OFFSET 0.000000 0.000003 -20.557198
				CHANNELS 3 Xrotation Yrotation Zrotation
				JOINT RightLegRoll
				{
					OFFSET 0.000000 -0.000003 20.624397
					CHANNELS 3 Xrotation Yrotation Zrotation
					JOINT RightFoot
					{
						OFFSET 0.000000 -0.000003 17.166405
						CHANNELS 3 Xrotation Yrotation Zrotation
						JOINT RightToeBase
						{
							OFFSET 0.000000 -0.000003 14.350204
							CHANNELS 3 Xrotation Yrotation Zrotation
							End Site
							{
								OFFSET 0.006081 0.801060 6.949707
							}
						}
					}
				}
			}
		}
	}
	JOINT LeftUpLeg
	{
		OFFSET 5.666161 0.871611 -1.039032
		CHANNELS 3 Xrotation Yrotation Zrotation
		JOINT LeftUpLegRoll
		{
			OFFSET 0.000000 -0.000003 16.600601
			CHANNELS 3 Xrotation Yrotation Zrotation
			JOINT LeftLeg
			{
				OFFSET 0.000000 -0.000004 20.557098
				CHANNELS 3 Xrotation Yrotation Zrotation
				JOINT LeftLegRoll
				{
					OFFSET 0.000000 -0.000003 20.815094
					CHANNELS 3 Xrotation Yrotation Zrotation
					JOINT LeftFoot
					{
						OFFSET 0.000000 -0.000003 16.975693
						CHANNELS 3 Xrotation Yrotation Zrotation
						JOINT LeftToeBase
						{
							OFFSET 0.000000 -0.000003 14.350204
							CHANNELS 3 Xrotation Yrotation Zrotation
							End Site
							{
								OFFSET -0.027260 0.801060 6.949707
							}
						}
					}
				}
			}
		}
	}
}
MOTION
Frames: 5
Frame Time: 0.041667
56.029099 -14.891214 85.610306 -2.101017 0.579285 -0.127178 -1.506739 0.161712 -0.265981 0.990778 0.306138 -0.529340 2.635836 0.299830 -0.533115 10.677640 2.357037 0.038097 9.167073 -2.317569 0.150625 -17.216486 -25.302921 -19.922960 -115.341350 -132.385445 -59.288159 0.000000 -0.000000 -0.000004 45.429381 7.463183 -0.540977 -0.000004 -0.000001 -3.008409 -5.000221 -7.998742 0.000178 -19.349036 17.756603 23.171111 -117.098006 133.310375 71.906872 -0.000003 -0.000024 0.000005 36.458679 -14.475742 0.957815 0.000005 -0.000004 3.010010 -5.000216 7.998940 -0.000135 0.328604 -175.020087 1.272974 -179.999991 0.000006 -1.079001 174.514407 -3.472060 -0.541235 0.000003 0.000004 0.044743 68.653080 6.881224 2.179926 25.456960 -7.355614 0.000001 1.309604 175.211236 0.446177 -0.000005 -0.000004 -1.074060 -6.907512 1.175934 0.569258 0.000003 0.000003 -0.098806 70.510939 -6.653674 -2.664603 25.457058 7.355618 -0.000169 
56.028805 -14.888412 85.612907 -2.106557 0.575085 -0.123716 -1.503916 0.161808 -0.265435 0.996480 0.306971 -0.529083 2.641537 0.300667 -0.532869 10.685474 2.334669 0.040561 9.145138 -2.279829 0.149180 -17.220949 -25.390349 -19.930883 -115.292555 -132.252598 -59.401042 0.000000 -0.000001 -0.000003 44.903282 7.571910 -0.582753 -0.000004 -0.000001 -3.008411 -5.000219 -7.998741 0.000177 -19.351150 17.838084 23.173664 -117.048433 133.144743 72.154754 -0.000003 -0.000024 0.000005 35.798155 -14.481548 0.968270 0.000007 -0.000005 3.009999 -5.000214 7.998938 -0.000137 0.334893 -175.015087 1.276239 -179.999991 0.000005 -1.079001 174.514147 -3.471065 -0.541155 0.000003 0.000004 0.044745 68.652888 6.881283 2.179850 25.456959 -7.355615 0.000001 1.316312 175.214255 0.446600 -0.000005 -0.000004 -1.074130 -6.901903 1.176792 0.568827 0.000003 0.000003 -0.098319 70.506670 -6.654214 -2.663453 25.457058 7.355618 -0.000169 
56.027599 -14.880112 85.612610 -2.113138 0.571887 -0.120049 -1.500818 0.161746 -0.264935 1.002714 0.307519 -0.528792 2.647776 0.301220 -0.532586 10.691507 2.312256 0.042938 9.125082 -2.243651 0.147926 -17.226043 -25.478689 -19.939933 -115.240359 -132.120707 -59.508105 0.000000 -0.000001 -0.000004 44.383177 7.679347 -0.622798 -0.000005 -0.000003 -3.008410 -5.000214 -7.998743 0.000177 -19.352813 17.918088 23.175564 -116.995608 132.978824 72.402034 -0.000003 -0.000021 0.000007 35.135678 -14.481034 0.975500 0.000007 -0.000003 3.010002 -5.000218 7.998940 -0.000137 0.342461 -175.012095 1.278744 -179.999991 0.000005 -1.079000 174.513929 -3.470072 -0.541073 0.000003 0.000004 0.044746 68.652881 6.881245 2.179843 25.456957 -7.355614 0.000001 1.322569 175.216277 0.445759 -0.000005 -0.000004 -1.074190 -6.899776 1.178118 0.568595 0.000003 0.000003 -0.097860 70.504266 -6.654293 -2.663310 25.457054 7.355617 -0.000168 
56.025799 -14.881111 85.613998 -2.120897 0.569892 -0.116154 -1.497416 0.161487 -0.264496 1.009555 0.307698 -0.528460 2.654607 0.301403 -0.532255 10.695542 2.290016 0.045214 9.107229 -2.209460 0.146891 -17.231995 -25.567988 -19.950151 -115.184351 -131.989895 -59.608208 0.000000 -0.000000 -0.000004 43.870660 7.785338 -0.661212 -0.000004 0.000000 -3.008411 -5.000219 -7.998741 0.000177 -19.353922 17.996532 23.176647 -116.939478 132.812400 72.648324 -0.000003 -0.000021 0.000006 34.472040 -14.473603 0.979409 0.000005 -0.000004 3.010000 -5.000223 7.998940 -0.000135 0.351472 -175.010101 1.280370 -179.999991 0.000006 -1.079001 174.513819 -3.469078 -0.540985 0.000003 0.000004 0.044748 68.653045 6.881116 2.180108 25.456957 -7.355615 0.000001 1.328292 175.216277 0.443454 -0.000005 -0.000004 -1.074250 -6.901680 1.179950 0.568598 0.000003 0.000003 -0.097435 70.503835 -6.653953 -2.664278 25.457052 7.355617 -0.000168 
56.031898 -14.891113 85.616104 -2.129950 0.569300 -0.112005 -1.493677 0.160997 -0.264129 1.017065 0.307422 -0.528078 2.662117 0.301132 -0.531869 10.697379 2.268168 0.047380 9.091885 -2.177688 0.146099 -17.239071 -25.658434 -19.961998 -115.123849 -131.860422 -59.700047 0.000000 -0.000001 -0.000005 43.367234 7.889603 -0.697984 -0.000002 -0.000001 -3.008412 -5.000221 -7.998742 0.000179 -19.354471 18.073516 23.176749 -116.880082 132.645511 72.893794 -0.000004 -0.000023 0.000006 33.807944 -14.458564 0.979817 0.000004 -0.000003 3.009991 -5.000220 7.998940 -0.000133 0.362072 -175.010101 1.280972 -179.999991 0.000005 -1.079001 174.513765 -3.467080 -0.540796 0.000003 0.000004 0.044749 68.653202 6.880949 2.180567 25.456959 -7.355616 0.000002 1.333352 175.214283 0.439513 -0.000005 -0.000004 -1.074310 -6.908137 1.182336 0.568876 0.000003 0.000003 -0.097052 70.505755 -6.653035 -2.666504 25.457056 7.355618 -0.000169 
